{
  "title": "Lights.Out.2016.CAM.READNFO.XviD-BiGDADDYVAiN",
  "uid": 15478668,
  "size": 1524917751,
  "categoryP": "video",
  "categoryS": "movies",
  "magnet": "?xt=urn:btih:584bc214ceeee4ba81fc0d235dd18956c0d4da72&amp;dn=Lights.Out.2016.CAM.READNFO.XviD-BiGDADDYVAiN&amp;tr=udp%3A%2F%2Ftracker.leechers-paradise.org%3A6969&amp;tr=udp%3A%2F%2Fzer0day.ch%3A1337&amp;tr=udp%3A%2F%2Fopen.demonii.com%3A1337&amp;tr=udp%3A%2F%2Ftracker.coppersurfer.tk%3A6969&amp;tr=udp%3A%2F%2Fexodus.desync.com%3A6969",
  "seeders": 162,
  "leechers": 50,
  "uploader": "xxxlavalxxx",
  "files": 4,
  "time": 1470219724,
  "description": "http://extraimago.com/image/w2L2\r\n \nhttp://www.imdb.com/title/tt4786282/\r\n\r\n\r\nWhen her little brother, Martin, experiences the same events that once tested her sanity, Rebecca works to unlock the truth behind the terror, which brings her face to face with an entity that has an attachment to their mother, Sophie.\r\n\r\nDirector: David F. Sandberg\r\nWriters: Eric Heisserer (screenplay), David F. Sandberg (based on the short film by)\r\nStars: Teresa Palmer, Gabriel Bateman, Maria Bello\r\nGenres: Horror\r\nCountry: USA\r\nLanguage: English\r\n\r\n\r\nP R E S E N T S . . . . \r\n\r\nLights.Out.2016.CAM.READNFO.XviD-BiGDADDYVAiN\r\n\r\niMDB........: http://www.imdb.com/title/tt4786282/\r\n\r\nT E C H N i C A L . i N F O . . .\r\n\r\nBasic Information\r\nFormat                      : AVI\r\nFormat/Info                 : Audio Video Interleave\r\nFile size                   : 1.40 GiB\r\nDuration                    : 1 h 15 min\r\nOverall bit rate            : 2 631 kb/s\r\nWriting application         : VirtualDubMod 1.5.10.2 (build 2540/release)\r\nWriting library             : VirtualDubMod build 2540/release\r\n\r\nVideo\r\nID                          : 0\r\nFormat                      : MPEG-4 Visual\r\nFormat profile              : Advanced   \r\nFormat settings, BVOP       : 2\r\nFormat settings, QPel       : No\r\nFormat settings, GMC        : No warppoints\r\nFormat settings, Matrix     : Default (MPEG)\r\nMuxing mode                 : Packed bitstream\r\nCodec ID                    : XVID\r\nCodec ID/Hint               : XviD\r\nDuration                    : 1 h 15 min\r\nBit rate                    : 2 428 kb/s\r\nWidth                       : 720 pixels\r\nHeight                      : 288 pixels\r\nDisplay aspect ratio        : 2.500\r\nFrame rate                  : 29.970 (30000/1001) FPS\r\nColor space                 : YUV\r\nChroma subsampling          : 4:2:0\r\nBit depth                   : 8 bits\r\nScan type                   : Progressive\r\nCompression mode            : Lossy\r\nBits/(Pixel*Frame)          : 0.391\r\nStream size                 : 1.29 GiB (92%)\r\nWriting library             : XviD 67\r\n\r\nAudio\r\nID                          : 1\r\nFormat                      : MPEG Audio\r\nFormat version              : Version 1\r\nFormat profile              : Layer 3\r\nMode                        : Joint stereo\r\nMode extension              : MS Stereo\r\nCodec ID                    : 55\r\nCodec ID/Hint               : MP3\r\nDuration                    : 1 h 15 min\r\nBit rate mode               : Constant\r\nBit rate                    : 192 kb/s\r\nChannel(s)                  : 2 channels\r\nSampling rate               : 48.0 kHz\r\nCompression mode            : Lossy\r\nDelay relative to video     : 1 s 584 ms\r\nStream size                 : 104 MiB (7%)\r\nAlignment                   : Split accross interleaves\r\nInterleave, duration        : 33  ms (1.00 video frame)\r\nInterleave, preload duratio : 504  ms\r\n\r\n\r\nE N C O D E R S . N O T E S . . .  \r\n      \r\nSOURCE......: ViDEO...Lights Out (2016)[HQ Pre DVDRip [really this is and was the name of sors]\r\n............: AUDiO...UnKnOwN\r\nSAMPLE......: Yippers \r\nADDED NOTE..: Let's start out with why read NFO...audio is muffled, can hear pop, someone snacking, coughing etc... not the best out there but cheers to UnKn0wN for brining it to us yet again... as to the work done, video was ok, not much work needed to be honest. it's a horror sum dark spots but can def see. ran it through the ol' poo shine filters even added sum extra strength. as far as the audio goes, ran it also through the ol p00 shine filters and well, much better that it was. now listen not saying we brought this shit to lucas films with a multi tracker or anything LOL!!! just polishing turds to the fullest potentional...  \r\n\r\n \nhttp://extraimago.com/image/w2Lq \nhttp://extraimago.com/image/w2Ly \nhttp://extraimago.com/image/w2LL \nhttp://extraimago.com/image/w2LQ \nhttp://extraimago.com/image/w2Lm \nhttp://extraimago.com/image/w2Li",
  "parsed": {
    "xt": "urn:btih:584bc214ceeee4ba81fc0d235dd18956c0d4da72",
    "dn": "Lights.Out.2016.CAM.READNFO.XviD-BiGDADDYVAiN",
    "tr": [
      "udp://exodus.desync.com:6969",
      "udp://open.demonii.com:1337",
      "udp://tracker.coppersurfer.tk:6969",
      "udp://tracker.leechers-paradise.org:6969",
      "udp://zer0day.ch:1337"
    ],
    "infoHash": "584bc214ceeee4ba81fc0d235dd18956c0d4da72",
    "infoHashBuffer": {
      "type": "Buffer",
      "data": [
        88,
        75,
        194,
        20,
        206,
        238,
        228,
        186,
        129,
        252,
        13,
        35,
        93,
        209,
        137,
        86,
        192,
        212,
        218,
        114
      ]
    },
    "name": "Lights.Out.2016.CAM.READNFO.XviD-BiGDADDYVAiN",
    "announce": [
      "udp://exodus.desync.com:6969",
      "udp://open.demonii.com:1337",
      "udp://tracker.coppersurfer.tk:6969",
      "udp://tracker.leechers-paradise.org:6969",
      "udp://zer0day.ch:1337"
    ],
    "urlList": []
  },
  "previous": 295,
  "peers": 160,
  "last_updated": "2016-12-27T00:55:25.813Z"
}